<?xml version="1.0" standalone="no"?>
<!DOCTYPE svg PUBLIC "-//W3C//DTD SVG 20010904//EN"
 "http://www.w3.org/TR/2001/REC-SVG-20010904/DTD/svg10.dtd">
<svg version="1.0" xmlns="http://www.w3.org/2000/svg"
 width="988.000000pt" height="338.000000pt" viewBox="0 0 988.000000 338.000000"
 preserveAspectRatio="xMidYMid meet">

<g transform="translate(0.000000,338.000000) scale(0.100000,-0.100000)"
fill="#000000" stroke="none">
<path d="M929 3347 c-75 -31 -122 -69 -159 -127 -48 -76 -60 -134 -60 -312 l0
-156 -222 -4 c-220 -3 -224 -3 -280 -31 -74 -36 -134 -96 -166 -165 l-27 -57
0 -795 0 -795 26 -55 c45 -94 123 -159 224 -185 49 -12 140 -15 552 -15 l493
0 0 60 0 60 -488 0 c-541 0 -559 2 -621 62 -74 72 -71 25 -71 869 l0 757 28
53 c20 39 41 62 77 84 l48 30 213 3 213 4 3 -549 3 -548 33 -67 c36 -73 87
-124 161 -160 42 -21 63 -23 224 -26 l177 -3 0 60 0 60 -168 3 c-164 3 -170 4
-210 30 -22 15 -54 49 -69 75 l-28 48 -3 538 -3 538 498 -3 498 -3 45 -25 c24
-14 58 -44 75 -68 l30 -44 3 -194 3 -194 62 0 62 0 -5 202 c-4 180 -7 208 -26
248 -34 72 -88 126 -162 162 l-67 33 -508 3 -509 3 4 173 c3 172 3 173 33 221
22 36 45 57 84 77 l53 28 844 0 844 0 0 -575 0 -575 60 0 60 0 0 635 0 635
-912 0 -913 0 -56 -23z"/>
<path d="M3770 1760 l0 -1230 135 0 135 0 0 1230 0 1230 -135 0 -135 0 0
-1230z"/>
<path d="M9610 1760 l0 -1230 135 0 135 0 0 1230 0 1230 -135 0 -135 0 0
-1230z"/>
<path d="M5081 2220 c-176 -37 -321 -126 -429 -263 -133 -168 -192 -355 -192
-611 0 -293 73 -501 229 -656 124 -124 270 -185 466 -197 183 -11 377 24 518
92 115 56 110 46 108 181 0 64 -2 118 -4 120 -2 2 -27 -13 -56 -32 -222 -149
-528 -182 -725 -76 -148 79 -247 255 -258 457 l-3 60 573 1 c314 1 577 2 582
3 13 1 13 183 -1 291 -15 124 -35 194 -84 295 -76 156 -188 256 -350 311 -66
22 -102 27 -205 30 -69 2 -145 -1 -169 -6z m293 -241 c68 -25 152 -99 188
-166 30 -55 54 -141 64 -230 l7 -63 -448 0 -447 0 7 47 c24 161 141 331 273
394 106 52 247 59 356 18z"/>
<path d="M8375 2216 c-226 -52 -408 -202 -514 -426 -63 -132 -90 -266 -91
-442 -1 -438 186 -733 525 -830 106 -30 344 -32 475 -4 101 21 217 65 283 106
l47 30 0 120 c0 66 -3 120 -6 120 -3 0 -24 -13 -47 -29 -228 -156 -541 -191
-741 -83 -144 78 -246 259 -258 458 l-3 59 583 0 582 0 0 125 c0 413 -155 683
-445 776 -100 32 -294 42 -390 20z m309 -237 c76 -28 157 -104 196 -182 32
-65 60 -176 60 -239 l0 -38 -446 0 -446 0 7 43 c10 59 46 155 80 213 38 65
129 153 190 184 108 53 248 61 359 19z"/>
<path d="M6060 2184 c0 -5 556 -1482 615 -1637 7 -16 21 -17 137 -15 l131 3
194 490 c106 270 254 642 327 828 l134 338 -140 -3 -140 -3 -199 -550 c-239
-660 -263 -730 -279 -820 l-13 -70 -18 80 c-19 87 -17 81 -281 843 l-181 522
-144 0 c-78 0 -143 -3 -143 -6z"/>
<path d="M1987 1983 c-4 -3 -7 -136 -7 -295 l0 -288 -280 0 -280 0 0 -62 0
-63 281 3 280 3 -3 -185 -3 -184 -30 -44 c-17 -24 -51 -54 -75 -68 -43 -24
-53 -25 -247 -28 l-203 -4 0 -60 0 -60 213 4 212 3 67 33 c74 36 128 90 162
162 18 39 22 68 26 235 l5 190 230 5 c219 5 232 6 280 29 66 33 131 100 163
169 26 56 27 63 30 285 l4 227 -60 0 -60 0 -4 -217 -3 -218 -28 -48 c-15 -26
-47 -60 -69 -75 l-41 -27 -224 -3 -223 -3 0 295 0 296 -53 0 c-30 0 -57 -3
-60 -7z"/>
<path d="M101 272 c-71 -36 -100 -123 -66 -196 22 -45 59 -66 120 -66 74 0 85
11 85 80 l0 60 -45 0 c-33 0 -45 -4 -45 -15 0 -10 10 -15 30 -15 28 0 30 -3
30 -35 0 -29 -5 -37 -26 -45 -79 -30 -152 52 -125 141 6 21 23 47 38 58 28 23
82 28 114 11 16 -9 19 -7 19 8 0 35 -74 43 -129 14z"/>
<path d="M2230 273 c-64 -33 -89 -126 -54 -199 20 -42 59 -64 114 -64 82 0
127 63 118 162 -9 93 -97 143 -178 101z m116 -36 c20 -18 28 -35 31 -73 7 -66
-14 -108 -60 -123 -61 -21 -115 17 -124 87 -14 101 83 169 153 109z"/>
<path d="M590 145 c0 -113 2 -135 15 -135 12 0 15 13 15 55 0 40 4 57 15 61
24 9 59 -20 86 -70 15 -29 31 -46 42 -46 17 0 16 4 -8 48 -15 26 -34 53 -41
61 -11 12 -9 18 11 37 17 16 25 34 25 57 0 50 -24 67 -98 67 l-62 0 0 -135z
m116 94 c17 -14 18 -53 2 -67 -13 -10 -39 -15 -70 -13 -14 1 -18 10 -18 44 0
24 3 46 6 49 9 9 64 0 80 -13z"/>
<path d="M1110 186 c0 -146 17 -176 103 -176 34 0 49 6 68 26 22 23 24 35 27
135 3 94 2 109 -12 109 -14 0 -16 -15 -16 -100 0 -95 -2 -102 -26 -126 -19
-20 -31 -24 -52 -19 -50 12 -57 28 -60 140 -3 82 -7 105 -18 105 -11 0 -14
-20 -14 -94z"/>
<path d="M1670 145 c0 -113 2 -135 15 -135 11 0 15 12 15 49 l0 48 42 7 c58 9
88 39 88 88 0 58 -26 78 -100 78 l-60 0 0 -135z m117 93 c7 -6 13 -23 13 -39
0 -33 -32 -59 -72 -59 -27 0 -28 2 -28 53 0 30 3 57 7 60 8 9 64 -1 80 -15z"/>
</g>
</svg>
